<?xml version="1.0" encoding="iso-8859-1"?>
<!-- Generator: Adobe Illustrator 19.0.0, SVG Export Plug-In . SVG Version: 6.00 Build 0)  -->
<svg version="1.1" id="Layer_1" xmlns="http://www.w3.org/2000/svg" xmlns:xlink="http://www.w3.org/1999/xlink" x="0px" y="0px"
	 viewBox="0 0 512 512" style="enable-background:new 0 0 512 512;" xml:space="preserve">
<g>
	<g>
		<path d="M490.667,234.667c-12.8,0-21.333,8.533-21.333,21.333c0,117.333-96,213.333-213.333,213.333
			c-12.8,0-21.333,8.533-21.333,21.333S243.2,512,256,512c140.8,0,256-115.2,256-256C512,243.2,503.467,234.667,490.667,234.667z"/>
	</g>
</g>
<g>
	<g>
		<path d="M256,0C115.2,0,0,115.2,0,256c0,12.8,8.533,21.333,21.333,21.333c12.8,0,21.333-8.533,21.333-21.333
			c0-117.333,96-213.333,213.333-213.333c12.8,0,21.333-8.533,21.333-21.333C277.333,8.533,268.8,0,256,0z"/>
	</g>
</g>
<g>
	<g>
		<path d="M454.4,51.2C439.467,32,413.867,21.333,384,21.333c-44.8,0-85.333,32-85.333,74.667c0,12.8,8.533,21.333,21.333,21.333
			S341.333,108.8,341.333,96c0-17.067,19.2-32,42.667-32c17.067,0,29.867,4.267,36.267,12.8c6.4,8.533,21.333,10.667,29.867,4.267
			C458.667,74.667,460.8,59.733,454.4,51.2z"/>
	</g>
</g>
<g>
	<g>
		<path d="M384,128c-23.467,0-42.667-14.933-42.667-32c0-12.8-8.533-21.333-21.333-21.333S298.667,83.2,298.667,96
			c0,42.667,40.533,74.667,85.333,74.667c23.467,0,42.667,14.933,42.667,32c0,17.067-19.2,32-42.667,32
			c-17.067,0-29.867-4.267-36.267-12.8c-6.4-8.533-21.333-10.667-29.867-4.267c-10.667,8.533-10.667,21.333-4.267,29.867
			c14.933,19.2,40.533,29.867,70.4,29.867c44.8,0,85.333-32,85.333-74.667C469.333,160,428.8,128,384,128z"/>
	</g>
</g>
<g>
	<g>
		<path d="M384,0c-12.8,0-21.333,8.533-21.333,21.333v256c0,12.8,8.533,21.333,21.333,21.333c12.8,0,21.333-8.533,21.333-21.333
			v-256C405.333,8.533,396.8,0,384,0z"/>
	</g>
</g>
<g>
	<g>
		<path d="M181.333,437.333c-12.8,0-21.333,8.533-21.333,21.333c0,8.533-2.133,10.667-10.667,10.667H81.067
			C83.2,460.8,85.333,454.4,85.333,448V320c0-12.8,8.533-21.333,21.333-21.333S128,307.2,128,320s8.533,21.333,21.333,21.333
			c12.8,0,21.333-8.533,21.333-21.333c0-36.267-27.733-64-64-64s-64,27.733-64,64v128c0,2.133-2.133,6.4-4.267,10.667
			c-2.133,6.4-8.533,10.667-17.067,10.667C-6.4,469.333-6.4,512,21.333,512h128c32,0,53.333-21.333,53.333-53.333
			C202.667,445.867,194.133,437.333,181.333,437.333z"/>
	</g>
</g>
<g>
	<g>
		<path d="M106.667,362.667H21.333C8.533,362.667,0,371.2,0,384c0,12.8,8.533,21.333,21.333,21.333h85.333
			c12.8,0,21.333-8.533,21.333-21.333C128,371.2,119.467,362.667,106.667,362.667z"/>
	</g>
</g>
<g>
</g>
<g>
</g>
<g>
</g>
<g>
</g>
<g>
</g>
<g>
</g>
<g>
</g>
<g>
</g>
<g>
</g>
<g>
</g>
<g>
</g>
<g>
</g>
<g>
</g>
<g>
</g>
<g>
</g>
</svg>
